<svg width="512" height="512" viewBox="0 0 512 512" fill="none" xmlns="http://www.w3.org/2000/svg">
<g clip-path="url(#clip0_30092_543)">
<path d="M356 0H156C69.8436 0 0 69.8436 0 156V356C0 442.156 69.8436 512 156 512H356C442.156 512 512 442.156 512 356V156C512 69.8436 442.156 0 356 0Z" fill="#2D0F37"/>
<path d="M348.855 176H350.402C380.004 176 403.985 200.194 404 230.025V332.718H361.831V227.273C361.831 219.841 355.861 213.807 348.475 213.807H348.081C341.907 213.807 336.55 218.06 335.09 224.094L315.677 304.683C311.255 323.049 294.95 335.985 276.209 336C253.73 336.015 235.499 317.663 235.499 294.999V227.229C235.499 219.812 229.529 213.792 222.173 213.792C216.028 213.792 210.671 218.046 209.226 224.065L189.973 303.976C185.448 322.755 168.779 335.985 149.614 336C126.64 336.029 108 317.251 108 294.087V179.164H150.592V301.386H150.972L170.691 218.296C176.121 193.586 197.855 176 222.947 176C252.504 176 276.471 200.165 276.457 229.951V301.386H276.836L296.541 218.34C301.986 193.601 323.734 176 348.855 176Z" fill="#FCB069"/>
</g>
<defs>
<clipPath id="clip0_30092_543">
<rect width="512" height="512" fill="white"/>
</clipPath>
</defs>
</svg>