<svg width="848" height="112" viewBox="0 0 848 112" fill="none" xmlns="http://www.w3.org/2000/svg">
<path d="M233.796 30.8396C230.672 28.9503 226.89 28 222.444 28C218.571 28 215.18 28.7863 212.271 30.3531C209.357 31.92 206.964 34.0808 205.087 36.8299H204.855V29.318H188.189V88.4291H204.855V54.7725C204.855 52.442 205.325 50.3491 206.261 48.4937C207.202 46.6384 208.529 45.1903 210.253 44.1382C211.976 43.0861 214.029 42.56 216.405 42.56C219.626 42.56 222.132 43.5725 223.935 45.5976C225.738 47.6226 226.634 50.4735 226.634 54.139V88.4234H243.243V51.7915C243.243 46.7855 242.449 42.5147 240.856 38.9794C239.268 35.444 236.909 32.7289 233.785 30.8396H233.796Z" fill="#2D0F37"/>
<path d="M94.0668 28.0566H94.6678C106.167 28.0566 115.484 37.356 115.489 48.8218V88.2933H99.1077V47.764C99.1077 44.9075 96.7885 42.5883 93.9193 42.5883H93.7662C91.3677 42.5883 89.2866 44.223 88.7196 46.5422L81.178 77.5176C79.4599 84.577 73.1261 89.5491 65.8453 89.5548C57.113 89.5604 50.0307 82.5067 50.0307 73.7956V47.7471C50.0307 44.8962 47.7115 42.5826 44.8536 42.5826C42.4664 42.5826 40.3854 44.2174 39.824 46.5309L32.3448 77.2461C30.587 84.4638 24.1114 89.5491 16.6662 89.5548C7.74106 89.5661 0.5 82.3483 0.5 73.4448V29.2727H17.0461V76.2505H17.1936L24.8542 44.3135C26.9636 34.8162 35.4068 28.0566 45.1542 28.0566C56.6367 28.0566 65.9474 37.3446 65.9417 48.7935V76.2505H66.0892L73.7442 44.3305C75.8592 34.8218 84.3081 28.0566 94.0668 28.0566Z" fill="#2D0F37"/>
<path fill-rule="evenodd" clip-rule="evenodd" d="M165.173 36.661H165.519L165.513 36.6554V29.3754H182.179V88.4356H165.57V81.1556H165.168C163.75 82.9883 162.054 84.5495 160.081 85.8279C158.108 87.1119 155.948 88.0849 153.589 88.7523C151.23 89.4198 148.729 89.7535 146.087 89.7535C141.029 89.7535 136.498 88.4978 132.495 85.9976C128.492 83.4974 125.362 79.9224 123.099 75.2784C120.837 70.6343 119.708 64.9834 119.708 59.0214C119.708 53.0594 120.808 47.7196 123.014 42.9964C125.214 38.2788 128.321 34.6077 132.325 31.9887C136.328 29.3754 140.978 28.063 146.263 28.063C148.984 28.063 151.525 28.4024 153.878 29.0925C156.231 29.7826 158.369 30.7669 160.285 32.0452C162.202 33.3293 163.829 34.8622 165.173 36.661ZM158.822 73.3552C161.022 72.0145 162.741 70.1139 163.965 67.6477V67.6364C165.19 65.1758 165.803 62.257 165.803 59.0101C165.803 55.7632 165.202 52.8897 163.994 50.3838C162.786 47.878 161.074 45.9378 158.851 44.5632C156.628 43.1887 153.952 42.4986 151.15 42.4986C148.349 42.4986 145.843 43.1717 143.62 44.5067C141.397 45.8473 139.674 47.7592 138.449 50.2424C137.224 52.7313 136.612 55.6671 136.612 58.9592C136.612 62.2513 137.241 65.1362 138.505 67.6194C139.77 70.1083 141.499 72.0202 143.705 73.3552C145.911 74.6958 148.332 75.3632 151.207 75.3632C154.082 75.3632 156.617 74.6958 158.822 73.3552Z" fill="#2D0F37"/>
<path fill-rule="evenodd" clip-rule="evenodd" d="M293.29 36.943H293.641V29.318H310.306V86.257C310.306 91.6081 309.042 96.2238 306.513 100.104C303.984 103.985 300.423 106.937 295.824 108.962C291.226 110.987 285.827 112 279.618 112C274.061 112 269.139 111.265 264.847 109.794C260.555 108.318 257.079 106.112 254.414 103.17C251.754 100.229 250.132 96.5576 249.56 92.1624H266.168C266.894 94.6853 268.504 96.5463 270.994 97.7511C273.483 98.956 276.511 99.5556 280.072 99.5556C282.981 99.5556 285.442 99.0352 287.455 98.0057C289.468 96.9705 290.999 95.4546 292.053 93.4465C293.108 91.4384 293.635 89.04 293.635 86.2513V78.055H293.29C291.18 80.7701 288.47 82.9196 285.158 84.5034C281.841 86.0929 278.076 86.8849 273.863 86.8849C268.845 86.8849 264.32 85.6913 260.299 83.3042C256.279 80.9172 253.138 77.5119 250.875 73.0998C248.613 68.682 247.484 63.461 247.484 57.6461C247.484 51.8311 248.596 46.6949 250.819 42.2206C253.041 37.7463 256.154 34.2675 260.158 31.7842C264.161 29.301 268.771 28.0566 273.982 28.0566C278.116 28.0566 281.824 28.8428 285.102 30.4097C288.373 31.9766 291.106 34.1543 293.29 36.943ZM286.684 70.7976C288.906 69.5588 290.619 67.7996 291.827 65.5257V65.5143C293.034 63.2404 293.635 60.5931 293.635 57.5725C293.635 54.5519 293.034 51.8764 291.827 49.5459C290.619 47.2154 288.895 45.4166 286.655 44.1552C284.415 42.8994 281.898 42.2659 278.983 42.2659C276.069 42.2659 273.523 42.9107 271.34 44.1891C269.157 45.4731 267.45 47.2606 266.225 49.5515C265 51.8481 264.388 54.501 264.388 57.5216C264.388 60.5422 265 63.1895 266.225 65.4634C267.45 67.743 269.174 69.5079 271.396 70.7693C273.619 72.0251 276.165 72.6586 279.04 72.6586C281.915 72.6586 284.461 72.042 286.684 70.7976Z" fill="#2D0F37"/>
<path fill-rule="evenodd" clip-rule="evenodd" d="M362.655 31.9822C357.864 29.3236 352.482 28 346.506 28C340.529 28 335.125 29.3293 330.3 31.9822C325.475 34.6408 321.687 38.3176 318.948 43.0182C316.209 47.7188 314.837 53.0303 314.837 58.9584C314.837 64.8865 316.226 70.2545 319.005 74.9552C321.783 79.6558 325.577 83.2986 330.385 85.878C335.194 88.4574 340.529 89.7471 346.392 89.7471C352.256 89.7471 357.705 88.4461 362.513 85.8497C367.322 83.2533 371.104 79.6105 373.865 74.9269C376.627 70.2432 378.005 64.9204 378.005 58.9584C378.005 52.9964 376.644 47.6283 373.922 42.9616C371.2 38.3006 367.447 34.6408 362.655 31.9822ZM359.179 67.7883C357.858 70.3111 356.077 72.2626 353.832 73.6372C351.592 75.0117 349.109 75.7018 346.387 75.7018C343.665 75.7018 341.187 75.0061 338.947 73.6089C336.707 72.2117 334.933 70.2659 333.628 67.76C332.324 65.2541 331.672 62.341 331.672 59.015C331.672 55.6889 332.324 52.6966 333.628 50.1568C334.933 47.617 336.696 45.6485 338.919 44.2513C341.142 42.8541 343.631 42.1584 346.392 42.1584C349.154 42.1584 351.7 42.8541 353.923 44.2513C356.146 45.6485 357.909 47.617 359.213 50.1568C360.517 52.6966 361.169 55.6323 361.169 58.9584C361.169 62.2845 360.506 65.2655 359.185 67.7883H359.179Z" fill="#2D0F37"/>
<path fill-rule="evenodd" clip-rule="evenodd" d="M418.548 28.0566C423.799 28.0566 428.426 29.3632 432.429 31.9822C436.432 34.6012 439.534 38.2723 441.74 42.9899C443.946 47.7131 445.046 52.821 445.046 59.015C445.046 65.2089 443.917 70.6279 441.655 75.2719C439.392 79.916 436.262 83.4853 432.259 85.9911C428.256 88.497 423.725 89.7471 418.667 89.7471C416.025 89.7471 413.501 89.4077 411.108 88.7176C408.71 88.0275 406.515 87.0376 404.525 85.7366C402.535 84.4412 400.828 82.8687 399.411 81.036H399.297V110.733H382.632V29.3745H399.297V36.8242H399.411C400.754 34.9915 402.399 33.4133 404.355 32.0954C406.306 30.7774 408.483 29.7762 410.876 29.0861C413.269 28.4016 415.826 28.0566 418.548 28.0566ZM421.111 73.3487C423.311 72.0081 425.035 70.0962 426.282 67.6129V67.6242C427.524 65.1354 428.148 62.2901 428.148 58.964C428.148 55.638 427.536 52.7305 426.311 50.2473C425.086 47.7584 423.362 45.8521 421.139 44.5115C418.917 43.1709 416.518 42.5034 413.609 42.5034C410.7 42.5034 408.137 43.1935 405.937 44.5681C403.731 45.9426 402.03 47.8885 400.822 50.3887C399.615 52.8889 399.014 55.7285 399.014 59.015C399.014 62.3014 399.626 65.175 400.851 67.6412C402.076 70.1075 403.782 72.0137 405.965 73.3487C408.149 74.6893 410.717 75.3568 413.552 75.3568C416.388 75.3568 418.905 74.6893 421.111 73.3487Z" fill="#2D0F37"/>
<path fill-rule="evenodd" clip-rule="evenodd" d="M494.23 36.661H493.885C492.541 34.8622 490.913 33.3293 488.997 32.0452C487.08 30.7669 484.942 29.7826 482.589 29.0925C480.23 28.4024 477.696 28.063 474.974 28.063C469.683 28.063 465.039 29.3754 461.036 31.9887C457.033 34.6077 453.926 38.2788 451.725 42.9964C449.52 47.7196 448.42 53.0594 448.42 59.0214C448.42 64.9834 449.548 70.6343 451.81 75.2784C454.073 79.9224 457.203 83.4974 461.206 85.9976C465.21 88.4978 469.74 89.7535 474.798 89.7535C477.441 89.7535 479.941 89.4198 482.3 88.7523C484.659 88.0849 486.819 87.1119 488.793 85.8279C490.766 84.5495 492.461 82.9883 493.879 81.1556H494.282V88.4356H510.89V29.3754H494.225V36.6554L494.23 36.661ZM492.677 67.6477C491.452 70.1139 489.734 72.0145 487.534 73.3552C485.328 74.6958 482.793 75.3632 479.918 75.3632C477.044 75.3632 474.622 74.6958 472.417 73.3552C470.211 72.0202 468.481 70.1083 467.217 67.6194C465.952 65.1362 465.317 62.2513 465.317 58.9592C465.317 55.6671 465.93 52.7313 467.154 50.2424C468.379 47.7592 470.103 45.8473 472.326 44.5067C474.549 43.1717 477.055 42.4986 479.856 42.4986C482.657 42.4986 485.334 43.1887 487.556 44.5632C489.779 45.9378 491.492 47.878 492.7 50.3838C493.907 52.8897 494.508 55.7632 494.508 59.0101C494.508 62.257 493.896 65.1758 492.671 67.6364L492.677 67.6477Z" fill="#2D0F37"/>
<path d="M547.203 59.8174L557.375 29.3171H574.5L548.586 96.4606C546.783 101.195 544.016 104.764 540.279 107.151C536.543 109.539 531.36 110.732 524.731 110.732H518.465V97.3147H524.731C527.294 97.3147 529.307 96.9414 530.764 96.1947C532.222 95.4537 533.367 94.1414 534.212 92.2691L535.766 88.5414L512.546 29.3171H529.613L540.075 59.8174C541.067 62.8776 542.236 66.526 543.579 70.7685H543.869C545.133 66.5656 546.245 62.9115 547.203 59.8174Z" fill="#2D0F37"/>
<rect x="598.5" width="249" height="112" rx="56" fill="#2D0F37" fill-opacity="0.1"/>
<path d="M645.636 75V34.624H659.748C670.724 34.624 680.86 40.728 680.86 54.784C680.86 68.896 670.724 75 659.748 75H645.636ZM658.628 66.432C664.788 66.432 670.892 63.744 670.892 54.784C670.892 45.88 664.788 43.192 658.628 43.192H655.38V66.432H658.628ZM704.823 75.448C692.727 75.448 683.823 66.656 683.823 54.784C683.823 42.968 692.727 34.176 704.823 34.176C716.751 34.176 725.599 42.912 725.599 54.784C725.599 66.712 716.751 75.448 704.823 75.448ZM704.767 66.936C711.095 66.936 715.631 61.728 715.631 54.784C715.631 47.896 711.095 42.688 704.767 42.688C698.327 42.688 693.791 47.896 693.791 54.784C693.791 61.728 698.327 66.936 704.767 66.936ZM748.999 75.448C737.855 75.448 728.559 68.336 728.559 54.784C728.559 41.288 738.079 34.176 748.999 34.176C759.359 34.176 766.975 39.72 767.983 49.52H757.511C756.671 45.656 753.199 42.688 748.943 42.688C743.287 42.688 738.527 46.888 738.527 54.784C738.527 62.736 743.231 66.936 748.943 66.936C753.311 66.936 756.671 64.304 757.455 59.88H768.095C766.639 70.576 758.631 75.448 748.999 75.448ZM786.463 75.392C776.831 75.392 770.335 69.568 769.999 60.608H779.575C779.855 64.08 782.767 66.88 786.463 66.88C789.599 66.88 791.783 65.424 791.783 63.24C791.783 61.336 790.159 60.216 787.975 59.6L782.375 58.088C776.439 56.464 771.511 53.44 771.511 45.656C771.511 38.992 777.615 34.12 785.959 34.12C795.143 34.12 801.303 39.16 801.639 46.944H792.119C791.727 44.928 789.543 42.632 785.959 42.632C783.215 42.632 781.479 43.696 781.479 45.6C781.479 47.28 782.823 48.12 784.895 48.68L790.495 50.248C796.487 51.928 801.751 54.504 801.751 62.96C801.751 70.464 795.703 75.392 786.463 75.392Z" fill="#2D0F37"/>
</svg>
